<svg width="932" height="294" viewBox="0 0 932 294" fill="none" xmlns="http://www.w3.org/2000/svg">
<g clip-path="url(#clip0_3133_7864)">
<rect width="932" height="293" transform="translate(0 0.349915)" fill="#101216"/>
<rect y="-17.674" width="44.381" height="44.381" stroke="white" stroke-opacity="0.02" stroke-width="0.887619"/>
<rect x="44.3809" y="-17.674" width="44.381" height="44.381" stroke="white" stroke-opacity="0.02" stroke-width="0.887619"/>
<rect x="88.7618" y="-17.674" width="44.381" height="44.381" stroke="white" stroke-opacity="0.02" stroke-width="0.887619"/>
<rect x="133.143" y="-17.674" width="44.381" height="44.381" fill="white" fill-opacity="0.01" stroke="white" stroke-opacity="0.02" stroke-width="0.887619"/>
<rect x="177.524" y="-17.674" width="44.381" height="44.381" stroke="white" stroke-opacity="0.02" stroke-width="0.887619"/>
<rect x="221.905" y="-17.674" width="44.381" height="44.381" stroke="white" stroke-opacity="0.02" stroke-width="0.887619"/>
<rect x="266.286" y="-17.674" width="44.381" height="44.381" stroke="white" stroke-opacity="0.02" stroke-width="0.887619"/>
<rect x="310.667" y="-17.674" width="44.381" height="44.381" stroke="white" stroke-opacity="0.02" stroke-width="0.887619"/>
<rect x="355.048" y="-17.674" width="44.381" height="44.381" stroke="white" stroke-opacity="0.02" stroke-width="0.887619"/>
<rect x="399.428" y="-17.674" width="44.381" height="44.381" stroke="white" stroke-opacity="0.02" stroke-width="0.887619"/>
<rect x="443.81" y="-17.674" width="44.381" height="44.381" stroke="white" stroke-opacity="0.02" stroke-width="0.887619"/>
<rect x="488.19" y="-17.674" width="44.381" height="44.381" stroke="white" stroke-opacity="0.02" stroke-width="0.887619"/>
<rect x="532.571" y="-17.674" width="44.381" height="44.381" fill="white" fill-opacity="0.01" stroke="white" stroke-opacity="0.02" stroke-width="0.887619"/>
<rect x="576.952" y="-17.674" width="44.381" height="44.381" stroke="white" stroke-opacity="0.02" stroke-width="0.887619"/>
<rect x="621.333" y="-17.674" width="44.381" height="44.381" stroke="white" stroke-opacity="0.02" stroke-width="0.887619"/>
<rect x="665.714" y="-17.674" width="44.381" height="44.381" stroke="white" stroke-opacity="0.02" stroke-width="0.887619"/>
<rect x="710.095" y="-17.674" width="44.381" height="44.381" stroke="white" stroke-opacity="0.02" stroke-width="0.887619"/>
<rect x="754.476" y="-17.674" width="44.381" height="44.381" stroke="white" stroke-opacity="0.02" stroke-width="0.887619"/>
<rect x="798.857" y="-17.674" width="44.381" height="44.381" stroke="white" stroke-opacity="0.02" stroke-width="0.887619"/>
<rect x="843.238" y="-17.674" width="44.381" height="44.381" stroke="white" stroke-opacity="0.02" stroke-width="0.887619"/>
<rect x="887.619" y="-17.674" width="44.381" height="44.381" stroke="white" stroke-opacity="0.02" stroke-width="0.887619"/>
<rect y="26.7068" width="44.381" height="44.381" stroke="white" stroke-opacity="0.02" stroke-width="0.887619"/>
<rect x="44.3809" y="26.7068" width="44.381" height="44.381" stroke="white" stroke-opacity="0.02" stroke-width="0.887619"/>
<rect x="88.7618" y="26.7068" width="44.381" height="44.381" stroke="white" stroke-opacity="0.02" stroke-width="0.887619"/>
<rect x="133.143" y="26.7068" width="44.381" height="44.381" stroke="white" stroke-opacity="0.02" stroke-width="0.887619"/>
<rect x="177.524" y="26.7068" width="44.381" height="44.381" stroke="white" stroke-opacity="0.02" stroke-width="0.887619"/>
<rect x="221.905" y="26.7069" width="44.381" height="44.381" stroke="white" stroke-opacity="0.02" stroke-width="0.887619"/>
<rect x="266.286" y="26.7069" width="44.381" height="44.381" stroke="white" stroke-opacity="0.02" stroke-width="0.887619"/>
<rect x="310.667" y="26.7069" width="44.381" height="44.381" stroke="white" stroke-opacity="0.02" stroke-width="0.887619"/>
<rect x="355.048" y="26.7068" width="44.381" height="44.381" stroke="white" stroke-opacity="0.02" stroke-width="0.887619"/>
<rect x="399.428" y="26.7068" width="44.381" height="44.381" stroke="white" stroke-opacity="0.02" stroke-width="0.887619"/>
<rect x="443.81" y="26.7068" width="44.381" height="44.381" stroke="white" stroke-opacity="0.02" stroke-width="0.887619"/>
<rect x="488.19" y="26.7068" width="44.381" height="44.381" stroke="white" stroke-opacity="0.02" stroke-width="0.887619"/>
<rect x="532.571" y="26.7068" width="44.381" height="44.381" stroke="white" stroke-opacity="0.02" stroke-width="0.887619"/>
<rect x="576.952" y="26.7068" width="44.381" height="44.381" stroke="white" stroke-opacity="0.02" stroke-width="0.887619"/>
<rect x="621.333" y="26.7068" width="44.381" height="44.381" stroke="white" stroke-opacity="0.02" stroke-width="0.887619"/>
<rect x="665.714" y="26.7069" width="44.381" height="44.381" stroke="white" stroke-opacity="0.02" stroke-width="0.887619"/>
<rect x="710.095" y="26.7068" width="44.381" height="44.381" stroke="white" stroke-opacity="0.02" stroke-width="0.887619"/>
<rect x="754.476" y="26.7068" width="44.381" height="44.381" stroke="white" stroke-opacity="0.02" stroke-width="0.887619"/>
<rect x="798.857" y="26.7068" width="44.381" height="44.381" fill="white" fill-opacity="0.01" stroke="white" stroke-opacity="0.02" stroke-width="0.887619"/>
<rect x="843.238" y="26.7069" width="44.381" height="44.381" stroke="white" stroke-opacity="0.02" stroke-width="0.887619"/>
<rect x="887.619" y="26.7068" width="44.381" height="44.381" stroke="white" stroke-opacity="0.02" stroke-width="0.887619"/>
<rect y="71.0884" width="44.381" height="44.381" stroke="white" stroke-opacity="0.02" stroke-width="0.887619"/>
<rect x="44.3809" y="71.0884" width="44.381" height="44.381" stroke="white" stroke-opacity="0.02" stroke-width="0.887619"/>
<rect x="88.7618" y="71.0884" width="44.381" height="44.381" stroke="white" stroke-opacity="0.02" stroke-width="0.887619"/>
<rect x="133.143" y="71.0884" width="44.381" height="44.381" stroke="white" stroke-opacity="0.02" stroke-width="0.887619"/>
<rect x="177.524" y="71.0884" width="44.381" height="44.381" stroke="white" stroke-opacity="0.02" stroke-width="0.887619"/>
<rect x="221.905" y="71.0884" width="44.381" height="44.381" stroke="white" stroke-opacity="0.02" stroke-width="0.887619"/>
<rect x="266.286" y="71.0884" width="44.381" height="44.381" stroke="white" stroke-opacity="0.02" stroke-width="0.887619"/>
<rect x="310.667" y="71.0884" width="44.381" height="44.381" stroke="white" stroke-opacity="0.02" stroke-width="0.887619"/>
<rect x="355.048" y="71.0884" width="44.381" height="44.381" stroke="white" stroke-opacity="0.02" stroke-width="0.887619"/>
<rect x="399.428" y="71.0884" width="44.381" height="44.381" stroke="white" stroke-opacity="0.02" stroke-width="0.887619"/>
<rect x="443.81" y="71.0884" width="44.381" height="44.381" stroke="white" stroke-opacity="0.02" stroke-width="0.887619"/>
<rect x="488.19" y="71.0884" width="44.381" height="44.381" stroke="white" stroke-opacity="0.02" stroke-width="0.887619"/>
<rect x="532.571" y="71.0884" width="44.381" height="44.381" stroke="white" stroke-opacity="0.02" stroke-width="0.887619"/>
<rect x="576.952" y="71.0884" width="44.381" height="44.381" stroke="white" stroke-opacity="0.02" stroke-width="0.887619"/>
<rect x="621.333" y="71.0884" width="44.381" height="44.381" stroke="white" stroke-opacity="0.02" stroke-width="0.887619"/>
<rect x="665.714" y="71.0884" width="44.381" height="44.381" stroke="white" stroke-opacity="0.02" stroke-width="0.887619"/>
<rect x="710.095" y="71.0884" width="44.381" height="44.381" stroke="white" stroke-opacity="0.02" stroke-width="0.887619"/>
<rect x="754.476" y="71.0884" width="44.381" height="44.381" stroke="white" stroke-opacity="0.02" stroke-width="0.887619"/>
<rect x="798.857" y="71.0884" width="44.381" height="44.381" stroke="white" stroke-opacity="0.02" stroke-width="0.887619"/>
<rect x="843.238" y="71.0884" width="44.381" height="44.381" stroke="white" stroke-opacity="0.02" stroke-width="0.887619"/>
<rect x="887.619" y="71.0884" width="44.381" height="44.381" stroke="white" stroke-opacity="0.02" stroke-width="0.887619"/>
<rect y="115.469" width="44.381" height="44.381" stroke="white" stroke-opacity="0.02" stroke-width="0.887619"/>
<rect x="44.3809" y="115.469" width="44.381" height="44.381" stroke="white" stroke-opacity="0.02" stroke-width="0.887619"/>
<rect x="88.7618" y="115.469" width="44.381" height="44.381" stroke="white" stroke-opacity="0.02" stroke-width="0.887619"/>
<rect x="133.143" y="115.469" width="44.381" height="44.381" stroke="white" stroke-opacity="0.02" stroke-width="0.887619"/>
<rect x="177.524" y="115.469" width="44.381" height="44.381" stroke="white" stroke-opacity="0.02" stroke-width="0.887619"/>
<rect x="221.905" y="115.469" width="44.381" height="44.381" stroke="white" stroke-opacity="0.02" stroke-width="0.887619"/>
<rect x="266.286" y="115.469" width="44.381" height="44.381" stroke="white" stroke-opacity="0.02" stroke-width="0.887619"/>
<rect x="310.667" y="115.469" width="44.381" height="44.381" stroke="white" stroke-opacity="0.02" stroke-width="0.887619"/>
<rect x="355.048" y="115.469" width="44.381" height="44.381" fill="white" fill-opacity="0.01" stroke="white" stroke-opacity="0.02" stroke-width="0.887619"/>
<rect x="399.428" y="115.469" width="44.381" height="44.381" stroke="white" stroke-opacity="0.02" stroke-width="0.887619"/>
<rect x="443.81" y="115.469" width="44.381" height="44.381" stroke="white" stroke-opacity="0.02" stroke-width="0.887619"/>
<rect x="488.19" y="115.469" width="44.381" height="44.381" stroke="white" stroke-opacity="0.02" stroke-width="0.887619"/>
<rect x="532.571" y="115.469" width="44.381" height="44.381" stroke="white" stroke-opacity="0.02" stroke-width="0.887619"/>
<rect x="576.952" y="115.469" width="44.381" height="44.381" stroke="white" stroke-opacity="0.02" stroke-width="0.887619"/>
<rect x="621.333" y="115.469" width="44.381" height="44.381" stroke="white" stroke-opacity="0.02" stroke-width="0.887619"/>
<rect x="665.714" y="115.469" width="44.381" height="44.381" stroke="white" stroke-opacity="0.02" stroke-width="0.887619"/>
<rect x="710.095" y="115.469" width="44.381" height="44.381" stroke="white" stroke-opacity="0.02" stroke-width="0.887619"/>
<rect x="754.476" y="115.469" width="44.381" height="44.381" stroke="white" stroke-opacity="0.02" stroke-width="0.887619"/>
<rect x="798.857" y="115.469" width="44.381" height="44.381" stroke="white" stroke-opacity="0.02" stroke-width="0.887619"/>
<rect x="843.238" y="115.469" width="44.381" height="44.381" stroke="white" stroke-opacity="0.02" stroke-width="0.887619"/>
<rect x="887.619" y="115.469" width="44.381" height="44.381" stroke="white" stroke-opacity="0.02" stroke-width="0.887619"/>
<rect y="159.85" width="44.381" height="44.381" stroke="white" stroke-opacity="0.02" stroke-width="0.887619"/>
<rect x="44.3809" y="159.85" width="44.381" height="44.381" stroke="white" stroke-opacity="0.02" stroke-width="0.887619"/>
<rect x="88.7618" y="159.85" width="44.381" height="44.381" stroke="white" stroke-opacity="0.02" stroke-width="0.887619"/>
<rect x="133.143" y="159.85" width="44.381" height="44.381" stroke="white" stroke-opacity="0.02" stroke-width="0.887619"/>
<rect x="177.524" y="159.85" width="44.381" height="44.381" fill="white" fill-opacity="0.01" stroke="white" stroke-opacity="0.02" stroke-width="0.887619"/>
<rect x="221.905" y="159.85" width="44.381" height="44.381" stroke="white" stroke-opacity="0.02" stroke-width="0.887619"/>
<rect x="266.286" y="159.85" width="44.381" height="44.381" stroke="white" stroke-opacity="0.02" stroke-width="0.887619"/>
<rect x="310.667" y="159.85" width="44.381" height="44.381" stroke="white" stroke-opacity="0.02" stroke-width="0.887619"/>
<rect x="355.048" y="159.85" width="44.381" height="44.381" stroke="white" stroke-opacity="0.02" stroke-width="0.887619"/>
<rect x="399.428" y="159.85" width="44.381" height="44.381" stroke="white" stroke-opacity="0.02" stroke-width="0.887619"/>
<rect x="443.81" y="159.85" width="44.381" height="44.381" stroke="white" stroke-opacity="0.02" stroke-width="0.887619"/>
<rect x="488.19" y="159.85" width="44.381" height="44.381" stroke="white" stroke-opacity="0.02" stroke-width="0.887619"/>
<rect x="532.571" y="159.85" width="44.381" height="44.381" stroke="white" stroke-opacity="0.02" stroke-width="0.887619"/>
<rect x="576.952" y="159.85" width="44.381" height="44.381" stroke="white" stroke-opacity="0.02" stroke-width="0.887619"/>
<rect x="621.333" y="159.85" width="44.381" height="44.381" stroke="white" stroke-opacity="0.02" stroke-width="0.887619"/>
<rect x="665.714" y="159.85" width="44.381" height="44.381" stroke="white" stroke-opacity="0.02" stroke-width="0.887619"/>
<rect x="710.095" y="159.85" width="44.381" height="44.381" stroke="white" stroke-opacity="0.02" stroke-width="0.887619"/>
<rect x="754.476" y="159.85" width="44.381" height="44.381" stroke="white" stroke-opacity="0.02" stroke-width="0.887619"/>
<rect x="798.857" y="159.85" width="44.381" height="44.381" stroke="white" stroke-opacity="0.02" stroke-width="0.887619"/>
<rect x="843.238" y="159.85" width="44.381" height="44.381" stroke="white" stroke-opacity="0.02" stroke-width="0.887619"/>
<rect x="887.619" y="159.85" width="44.381" height="44.381" stroke="white" stroke-opacity="0.02" stroke-width="0.887619"/>
<rect y="204.231" width="44.381" height="44.381" stroke="white" stroke-opacity="0.02" stroke-width="0.887619"/>
<rect x="44.3809" y="204.231" width="44.381" height="44.381" stroke="white" stroke-opacity="0.02" stroke-width="0.887619"/>
<rect x="88.7618" y="204.231" width="44.381" height="44.381" stroke="white" stroke-opacity="0.02" stroke-width="0.887619"/>
<rect x="133.143" y="204.231" width="44.381" height="44.381" stroke="white" stroke-opacity="0.02" stroke-width="0.887619"/>
<rect x="177.524" y="204.231" width="44.381" height="44.381" stroke="white" stroke-opacity="0.02" stroke-width="0.887619"/>
<rect x="221.905" y="204.231" width="44.381" height="44.381" stroke="white" stroke-opacity="0.02" stroke-width="0.887619"/>
<rect x="266.286" y="204.231" width="44.381" height="44.381" stroke="white" stroke-opacity="0.02" stroke-width="0.887619"/>
<rect x="310.667" y="204.231" width="44.381" height="44.381" stroke="white" stroke-opacity="0.02" stroke-width="0.887619"/>
<rect x="355.048" y="204.231" width="44.381" height="44.381" stroke="white" stroke-opacity="0.02" stroke-width="0.887619"/>
<rect x="399.428" y="204.231" width="44.381" height="44.381" stroke="white" stroke-opacity="0.02" stroke-width="0.887619"/>
<rect x="443.81" y="204.231" width="44.381" height="44.381" stroke="white" stroke-opacity="0.02" stroke-width="0.887619"/>
<rect x="488.19" y="204.231" width="44.381" height="44.381" stroke="white" stroke-opacity="0.02" stroke-width="0.887619"/>
<rect x="532.571" y="204.231" width="44.381" height="44.381" stroke="white" stroke-opacity="0.02" stroke-width="0.887619"/>
<rect x="576.952" y="204.231" width="44.381" height="44.381" stroke="white" stroke-opacity="0.02" stroke-width="0.887619"/>
<rect x="621.333" y="204.231" width="44.381" height="44.381" stroke="white" stroke-opacity="0.02" stroke-width="0.887619"/>
<rect x="665.714" y="204.231" width="44.381" height="44.381" stroke="white" stroke-opacity="0.02" stroke-width="0.887619"/>
<rect x="710.095" y="204.231" width="44.381" height="44.381" stroke="white" stroke-opacity="0.02" stroke-width="0.887619"/>
<rect x="754.476" y="204.231" width="44.381" height="44.381" stroke="white" stroke-opacity="0.02" stroke-width="0.887619"/>
<rect x="798.857" y="204.231" width="44.381" height="44.381" stroke="white" stroke-opacity="0.02" stroke-width="0.887619"/>
<rect x="843.238" y="204.231" width="44.381" height="44.381" stroke="white" stroke-opacity="0.02" stroke-width="0.887619"/>
<rect x="887.619" y="204.231" width="44.381" height="44.381" stroke="white" stroke-opacity="0.02" stroke-width="0.887619"/>
<rect y="248.612" width="44.381" height="44.381" stroke="white" stroke-opacity="0.02" stroke-width="0.887619"/>
<rect x="44.3809" y="248.612" width="44.381" height="44.381" stroke="white" stroke-opacity="0.02" stroke-width="0.887619"/>
<rect x="88.7618" y="248.612" width="44.381" height="44.381" stroke="white" stroke-opacity="0.02" stroke-width="0.887619"/>
<rect x="133.143" y="248.612" width="44.381" height="44.381" stroke="white" stroke-opacity="0.02" stroke-width="0.887619"/>
<rect x="177.524" y="248.612" width="44.381" height="44.381" stroke="white" stroke-opacity="0.02" stroke-width="0.887619"/>
<rect x="221.905" y="248.612" width="44.381" height="44.381" stroke="white" stroke-opacity="0.02" stroke-width="0.887619"/>
<rect x="266.286" y="248.612" width="44.381" height="44.381" stroke="white" stroke-opacity="0.02" stroke-width="0.887619"/>
<rect x="310.667" y="248.612" width="44.381" height="44.381" stroke="white" stroke-opacity="0.02" stroke-width="0.887619"/>
<rect x="355.048" y="248.612" width="44.381" height="44.381" stroke="white" stroke-opacity="0.02" stroke-width="0.887619"/>
<rect x="399.428" y="248.612" width="44.381" height="44.381" stroke="white" stroke-opacity="0.02" stroke-width="0.887619"/>
<rect x="443.81" y="248.612" width="44.381" height="44.381" stroke="white" stroke-opacity="0.02" stroke-width="0.887619"/>
<rect x="488.19" y="248.612" width="44.381" height="44.381" stroke="white" stroke-opacity="0.02" stroke-width="0.887619"/>
<rect x="532.571" y="248.612" width="44.381" height="44.381" stroke="white" stroke-opacity="0.02" stroke-width="0.887619"/>
<rect x="576.952" y="248.612" width="44.381" height="44.381" stroke="white" stroke-opacity="0.02" stroke-width="0.887619"/>
<rect x="621.333" y="248.612" width="44.381" height="44.381" stroke="white" stroke-opacity="0.02" stroke-width="0.887619"/>
<rect x="665.714" y="248.612" width="44.381" height="44.381" stroke="white" stroke-opacity="0.02" stroke-width="0.887619"/>
<rect x="710.095" y="248.612" width="44.381" height="44.381" stroke="white" stroke-opacity="0.02" stroke-width="0.887619"/>
<rect x="754.476" y="248.612" width="44.381" height="44.381" stroke="white" stroke-opacity="0.02" stroke-width="0.887619"/>
<rect x="798.857" y="248.612" width="44.381" height="44.381" stroke="white" stroke-opacity="0.02" stroke-width="0.887619"/>
<rect x="843.238" y="248.612" width="44.381" height="44.381" stroke="white" stroke-opacity="0.02" stroke-width="0.887619"/>
<rect x="887.619" y="248.612" width="44.381" height="44.381" stroke="white" stroke-opacity="0.02" stroke-width="0.887619"/>
<rect y="292.993" width="44.381" height="44.381" stroke="white" stroke-opacity="0.02" stroke-width="0.887619"/>
<rect x="44.3809" y="292.993" width="44.381" height="44.381" stroke="white" stroke-opacity="0.02" stroke-width="0.887619"/>
<rect x="88.7618" y="292.993" width="44.381" height="44.381" stroke="white" stroke-opacity="0.02" stroke-width="0.887619"/>
<rect x="133.143" y="292.993" width="44.381" height="44.381" stroke="white" stroke-opacity="0.02" stroke-width="0.887619"/>
<rect x="177.524" y="292.993" width="44.381" height="44.381" stroke="white" stroke-opacity="0.02" stroke-width="0.887619"/>
<rect x="221.905" y="292.993" width="44.381" height="44.381" stroke="white" stroke-opacity="0.02" stroke-width="0.887619"/>
<rect x="266.286" y="292.993" width="44.381" height="44.381" stroke="white" stroke-opacity="0.02" stroke-width="0.887619"/>
<rect x="310.667" y="292.993" width="44.381" height="44.381" stroke="white" stroke-opacity="0.02" stroke-width="0.887619"/>
<rect x="355.048" y="292.993" width="44.381" height="44.381" stroke="white" stroke-opacity="0.02" stroke-width="0.887619"/>
<rect x="399.428" y="292.993" width="44.381" height="44.381" stroke="white" stroke-opacity="0.02" stroke-width="0.887619"/>
<rect x="443.81" y="292.993" width="44.381" height="44.381" stroke="white" stroke-opacity="0.02" stroke-width="0.887619"/>
<rect x="488.19" y="292.993" width="44.381" height="44.381" stroke="white" stroke-opacity="0.02" stroke-width="0.887619"/>
<rect x="532.571" y="292.993" width="44.381" height="44.381" stroke="white" stroke-opacity="0.02" stroke-width="0.887619"/>
<rect x="576.952" y="292.993" width="44.381" height="44.381" stroke="white" stroke-opacity="0.02" stroke-width="0.887619"/>
<rect x="621.333" y="292.993" width="44.381" height="44.381" stroke="white" stroke-opacity="0.02" stroke-width="0.887619"/>
<rect x="665.714" y="292.993" width="44.381" height="44.381" stroke="white" stroke-opacity="0.02" stroke-width="0.887619"/>
<rect x="710.095" y="292.993" width="44.381" height="44.381" stroke="white" stroke-opacity="0.02" stroke-width="0.887619"/>
<rect x="754.476" y="292.993" width="44.381" height="44.381" stroke="white" stroke-opacity="0.02" stroke-width="0.887619"/>
<rect x="798.857" y="292.993" width="44.381" height="44.381" stroke="white" stroke-opacity="0.02" stroke-width="0.887619"/>
<rect x="843.238" y="292.993" width="44.381" height="44.381" stroke="white" stroke-opacity="0.02" stroke-width="0.887619"/>
<rect x="887.619" y="292.993" width="44.381" height="44.381" stroke="white" stroke-opacity="0.02" stroke-width="0.887619"/>
<g filter="url(#filter0_f_3133_7864)">
<rect x="-75.4473" y="-821.043" width="1125.5" height="886.461" fill="url(#paint0_radial_3133_7864)"/>
</g>
<rect x="-200.158" y="-403.033" width="1280.83" height="804.759" fill="url(#paint1_radial_3133_7864)" stroke="#14161B" stroke-width="0.887619"/>
</g>
<defs>
<filter id="filter0_f_3133_7864" x="-341.733" y="-1087.33" width="1658.07" height="1419.03" filterUnits="userSpaceOnUse" color-interpolation-filters="sRGB">
<feFlood flood-opacity="0" result="BackgroundImageFix"/>
<feBlend mode="normal" in="SourceGraphic" in2="BackgroundImageFix" result="shape"/>
<feGaussianBlur stdDeviation="133.143" result="effect1_foregroundBlur_3133_7864"/>
</filter>
<radialGradient id="paint0_radial_3133_7864" cx="0" cy="0" r="1" gradientUnits="userSpaceOnUse" gradientTransform="translate(487.303 -377.813) rotate(90) scale(443.231 562.75)">
<stop offset="0.015625" stop-color="#2266C1" stop-opacity="0.69"/>
<stop offset="0.223958" stop-color="#2266C1" stop-opacity="0.34"/>
<stop offset="0.911458" stop-color="#2DEBFC" stop-opacity="0"/>
</radialGradient>
<radialGradient id="paint1_radial_3133_7864" cx="0" cy="0" r="1" gradientUnits="userSpaceOnUse" gradientTransform="translate(440.259 -0.65332) rotate(90) scale(401.936 639.973)">
<stop stop-color="#14161B" stop-opacity="0"/>
<stop offset="0.833333" stop-color="#14161B"/>
</radialGradient>
<clipPath id="clip0_3133_7864">
<rect width="932" height="293" fill="white" transform="translate(0 0.349915)"/>
</clipPath>
</defs>
</svg>
