<svg width="471" height="491" viewBox="0 0 471 491" fill="none" xmlns="http://www.w3.org/2000/svg">
<g clip-path="url(#clip0_3133_7193)">
<mask id="mask0_3133_7193" style="mask-type:alpha" maskUnits="userSpaceOnUse" x="0" y="0" width="491" height="491">
<circle cx="245.5" cy="245.5" r="245.5" fill="url(#paint0_radial_3133_7193)"/>
</mask>
<g mask="url(#mask0_3133_7193)">
<path opacity="0.5" d="M177.903 -32V50.9382C177.903 57.2022 182.987 62.2802 189.258 62.2802H269.452C275.723 62.2802 280.806 67.3581 280.806 73.6221V153.725C280.806 159.989 285.89 165.067 292.161 165.067H372.355C378.626 165.067 383.71 170.145 383.71 176.409V256.511C383.71 262.775 388.793 267.853 395.065 267.853H475.258C481.529 267.853 486.613 272.931 486.613 279.195V359.298C486.613 365.562 491.697 370.64 497.968 370.64H581M75 -32V50.9382C75 57.2022 80.0837 62.2802 86.3548 62.2802H166.548C172.819 62.2802 177.903 67.3581 177.903 73.6221V153.725C177.903 159.989 182.987 165.067 189.258 165.067H269.452C275.723 165.067 280.806 170.145 280.806 176.409V256.511C280.806 262.775 275.723 267.853 269.452 267.853H189.258C182.987 267.853 177.903 262.775 177.903 256.511V174.991L177.804 174.321C177.042 169.184 172.676 165.348 167.478 165.248L158.032 165.067H86.3548C80.0837 165.067 75 170.145 75 176.409V256.511C75 262.775 80.0837 267.853 86.3548 267.853H167.258L169.954 268.033C174.427 268.331 177.903 272.042 177.903 276.521V285.221M177.903 276.36V359.298C177.903 365.562 182.987 370.64 189.258 370.64H269.452C275.723 370.64 280.806 375.718 280.806 381.982V462.085C280.806 468.349 285.89 473.427 292.161 473.427H372.355C378.626 473.427 383.71 478.505 383.71 484.769V564.871C383.71 571.135 388.793 576.213 395.065 576.213H475.258C481.529 576.213 486.613 581.291 486.613 587.555V667.658C486.613 673.922 491.697 679 497.968 679H581" stroke="url(#paint1_linear_3133_7193)" stroke-width="1.27532"/>
<rect x="249" y="60" width="64" height="64" rx="32" fill="#0D284C"/>
<path fill-rule="evenodd" clip-rule="evenodd" d="M275.439 80C275.263 79.9999 275.089 80.0346 274.926 80.1021C274.764 80.1696 274.616 80.2686 274.492 80.3933L274.49 80.3962L270.886 84H291.114L287.511 80.3962L287.508 80.3933C287.384 80.2686 287.236 80.1696 287.074 80.1021C286.911 80.0346 286.737 79.9999 286.561 80H275.439ZM293 86.6667H269V89.3333C269 89.687 269.141 90.0261 269.391 90.2762C269.632 90.518 269.958 90.6574 270.299 90.6662C270.775 90.6318 271.229 90.4478 271.595 90.1398C271.62 90.1187 271.646 90.0985 271.672 90.0793C272.059 89.8001 272.523 89.6498 273 89.6498C273.477 89.6498 273.941 89.8001 274.328 90.0793C274.354 90.0985 274.38 90.1187 274.405 90.1398C274.762 90.4403 275.203 90.6228 275.667 90.6635C276.13 90.6228 276.571 90.4403 276.928 90.1398C276.953 90.1187 276.979 90.0985 277.006 90.0793C277.392 89.8001 277.857 89.6498 278.333 89.6498C278.81 89.6498 279.275 89.8001 279.661 90.0793C279.688 90.0985 279.713 90.1187 279.739 90.1398C280.096 90.4403 280.536 90.6228 281 90.6635C281.464 90.6228 281.904 90.4403 282.262 90.1398C282.287 90.1187 282.313 90.0985 282.339 90.0793C282.725 89.8001 283.19 89.6498 283.667 89.6498C284.143 89.6498 284.608 89.8001 284.994 90.0793C285.021 90.0985 285.047 90.1187 285.072 90.1398C285.429 90.4403 285.87 90.6228 286.333 90.6635C286.797 90.6228 287.238 90.4403 287.595 90.1398C287.62 90.1187 287.646 90.0985 287.672 90.0793C288.059 89.8001 288.523 89.6498 289 89.6498C289.477 89.6498 289.941 89.8001 290.328 90.0793C290.354 90.0985 290.38 90.1187 290.405 90.1398C290.771 90.4478 291.225 90.6318 291.701 90.6662C292.042 90.6574 292.368 90.518 292.61 90.2762C292.86 90.0261 293 89.687 293 89.3333V86.6667ZM290.333 93.0952C289.859 92.9403 289.409 92.7137 289 92.422C288.241 92.963 287.342 93.2798 286.407 93.3313C286.358 93.334 286.309 93.334 286.26 93.3313C285.324 93.2798 284.425 92.963 283.667 92.422C282.908 92.963 282.009 93.2798 281.073 93.3313C281.025 93.334 280.976 93.334 280.927 93.3313C279.991 93.2798 279.092 92.963 278.333 92.422C277.575 92.963 276.676 93.2798 275.74 93.3313C275.691 93.334 275.642 93.334 275.593 93.3313C274.658 93.2798 273.759 92.963 273 92.422C272.591 92.7137 272.141 92.9403 271.667 93.0952V102.667C271.667 103.02 271.807 103.359 272.057 103.609C272.307 103.86 272.646 104 273 104H275.667V100C275.667 98.9391 276.088 97.9217 276.838 97.1716C277.588 96.4214 278.606 96 279.667 96H282.333C283.394 96 284.412 96.4214 285.162 97.1716C285.912 97.9217 286.333 98.9391 286.333 100V104H289C289.354 104 289.693 103.86 289.943 103.609C290.193 103.359 290.333 103.02 290.333 102.667V93.0952ZM283.667 104V100C283.667 99.6464 283.526 99.3073 283.276 99.0572C283.026 98.8072 282.687 98.6667 282.333 98.6667H279.667C279.313 98.6667 278.974 98.8072 278.724 99.0572C278.474 99.3073 278.333 99.6464 278.333 100V104H283.667ZM277 106.667H289C290.061 106.667 291.078 106.245 291.828 105.495C292.579 104.745 293 103.728 293 102.667V93.1046C293.557 92.9076 294.069 92.5876 294.495 92.1618C295.245 91.4116 295.667 90.3942 295.667 89.3333V85.3333C295.667 84.9797 295.526 84.6406 295.276 84.3905L289.399 78.5133C289.398 78.5127 289.398 78.5122 289.397 78.5116C289.025 78.1381 288.584 77.8417 288.097 77.6395C287.61 77.4371 287.088 77.3331 286.56 77.3333C286.56 77.3333 286.56 77.3333 286.56 77.3333H275.441M277 106.667H273C271.939 106.667 270.922 106.245 270.172 105.495C269.421 104.745 269 103.728 269 102.667V93.1046C268.443 92.9076 267.931 92.5876 267.505 92.1618C266.755 91.4116 266.333 90.3942 266.333 89.3333V85.3333C266.333 84.9797 266.474 84.6406 266.724 84.3905L272.601 78.5133C272.602 78.5128 272.602 78.5123 272.603 78.5118C272.974 78.1382 273.416 77.8417 273.903 77.6395C274.39 77.4371 274.913 77.3331 275.441 77.3333" fill="#2C85FC"/>
<rect x="208" y="350" width="52" height="52" rx="26" fill="#0D284C"/>
<path fill-rule="evenodd" clip-rule="evenodd" d="M226.067 363.633C226.287 363.34 226.633 363.167 227 363.167H241C241.367 363.167 241.713 363.34 241.933 363.633L245.433 368.3C245.585 368.502 245.667 368.748 245.667 369V385.333C245.667 386.262 245.298 387.152 244.642 387.808C243.985 388.465 243.095 388.833 242.167 388.833H225.833C224.905 388.833 224.015 388.465 223.359 387.808C222.702 387.152 222.333 386.262 222.333 385.333V369C222.333 368.748 222.415 368.502 222.567 368.3L226.067 363.633ZM227.583 365.5L225.833 367.833H242.167L240.417 365.5H227.583ZM243.333 370.167H224.667V385.333C224.667 385.643 224.79 385.94 225.008 386.158C225.227 386.377 225.524 386.5 225.833 386.5H242.167C242.476 386.5 242.773 386.377 242.992 386.158C243.21 385.94 243.333 385.643 243.333 385.333V370.167ZM229.333 372.5C229.978 372.5 230.5 373.022 230.5 373.667C230.5 374.595 230.869 375.485 231.525 376.142C232.182 376.798 233.072 377.167 234 377.167C234.928 377.167 235.819 376.798 236.475 376.142C237.131 375.485 237.5 374.595 237.5 373.667C237.5 373.022 238.022 372.5 238.667 372.5C239.311 372.5 239.833 373.022 239.833 373.667C239.833 375.214 239.219 376.698 238.125 377.791C237.031 378.885 235.547 379.5 234 379.5C232.453 379.5 230.969 378.885 229.875 377.791C228.781 376.698 228.167 375.214 228.167 373.667C228.167 373.022 228.689 372.5 229.333 372.5Z" fill="#2C85FC"/>
<rect x="54" y="208" width="44" height="44" rx="22" fill="#0E474C"/>
<g clip-path="url(#clip1_3133_7193)">
<path fill-rule="evenodd" clip-rule="evenodd" d="M67.5656 221.566C68.0344 221.097 68.6703 220.833 69.3334 220.833H75.31C75.973 220.833 76.6089 221.097 77.0776 221.566C77.0776 221.566 77.0777 221.566 77.0776 221.566L84.3328 228.821C84.8643 229.356 85.1627 230.079 85.1627 230.833C85.1627 231.587 84.8643 232.311 84.3328 232.846L84.331 232.848L78.8476 238.331L78.8458 238.333C78.3109 238.864 77.5874 239.163 76.8334 239.163C76.0793 239.163 75.3559 238.864 74.821 238.333L74.8191 238.331L67.5659 231.078C67.5658 231.078 67.5659 231.078 67.5659 231.078C67.0971 230.609 66.8335 229.973 66.8334 229.31V223.333C66.8334 222.67 67.0968 222.034 67.5656 221.566ZM69.3334 222.5C69.1124 222.5 68.9004 222.588 68.7441 222.744C68.5878 222.9 68.5 223.112 68.5 223.333V229.31C68.5 229.31 68.5 229.31 68.5 229.31C68.5001 229.531 68.588 229.743 68.7442 229.899L75.9958 237.151C75.996 237.151 75.9963 237.151 75.9966 237.151C76.2192 237.372 76.5199 237.496 76.8334 237.496C77.1468 237.496 77.4476 237.372 77.6701 237.151C77.6704 237.151 77.6707 237.151 77.671 237.151L83.1506 231.671C83.1509 231.671 83.1512 231.67 83.1514 231.67C83.3721 231.448 83.496 231.147 83.496 230.833C83.496 230.52 83.3721 230.219 83.1514 229.997C83.1512 229.996 83.1509 229.996 83.1506 229.996L75.8991 222.744C75.7429 222.588 75.531 222.5 75.31 222.5C75.31 222.5 75.3101 222.5 75.31 222.5H69.3334ZM72.25 226.667C72.4802 226.667 72.6667 226.48 72.6667 226.25C72.6667 226.02 72.4802 225.833 72.25 225.833C72.0199 225.833 71.8334 226.02 71.8334 226.25C71.8334 226.48 72.0199 226.667 72.25 226.667ZM71 226.25C71 225.56 71.5597 225 72.25 225C72.9404 225 73.5 225.56 73.5 226.25C73.5 226.94 72.9404 227.5 72.25 227.5C71.5597 227.5 71 226.94 71 226.25Z" fill="#2DEBFC"/>
</g>
</g>
</g>
<defs>
<radialGradient id="paint0_radial_3133_7193" cx="0" cy="0" r="1" gradientUnits="userSpaceOnUse" gradientTransform="translate(245.5 186.5) rotate(90) scale(304.5 444.919)">
<stop stop-color="#D9D9D9"/>
<stop offset="1" stop-opacity="0"/>
</radialGradient>
<linearGradient id="paint1_linear_3133_7193" x1="75" y1="-32" x2="568.967" y2="579.951" gradientUnits="userSpaceOnUse">
<stop stop-color="#0E474C"/>
<stop offset="0.9375" stop-color="#2266C1"/>
</linearGradient>
<clipPath id="clip0_3133_7193">
<rect width="471" height="491" fill="white"/>
</clipPath>
<clipPath id="clip1_3133_7193">
<rect width="20" height="20" fill="white" transform="translate(66 220)"/>
</clipPath>
</defs>
</svg>
