<svg width="116" height="34" viewBox="0 0 116 34" fill="none" xmlns="http://www.w3.org/2000/svg">
<path d="M5.41373 22.3589C5.01316 21.6864 5.28979 20.815 6.00488 20.4968L12.3384 17.6778C12.7212 17.5074 13.1625 17.531 13.525 17.7412L17.144 19.8401C17.5046 20.0492 17.7437 20.4178 17.7877 20.8322L18.5267 27.7916C18.6091 28.5676 17.9972 29.2423 17.2168 29.2359L14.2892 29.2118C13.5013 29.2053 12.8984 28.5081 13.0057 27.7275L13.5911 23.4685C13.6392 23.1191 13.4707 22.7755 13.1651 22.5995C12.8591 22.4233 12.4767 22.4504 12.1986 22.668L8.86447 25.2766C8.24462 25.7615 7.33985 25.5924 6.93709 24.9162L5.41373 22.3589Z" fill="white"/>
<path fill-rule="evenodd" clip-rule="evenodd" d="M19.1675 19.6496L24.7643 23.7665C25.0812 23.9996 25.5307 23.9018 25.7221 23.5581L27.1725 20.9526C27.3635 20.6095 27.2107 20.1766 26.8467 20.0294L22.8812 18.4251C22.3069 18.1928 21.931 17.6353 21.931 17.0158C21.931 16.4002 22.3022 15.8453 22.8712 15.6105L26.8506 13.9678C27.2128 13.8182 27.3628 13.3856 27.1708 13.044L25.7256 10.4722C25.5334 10.1302 25.0852 10.0335 24.7691 10.266L19.1675 14.3864C19.0001 14.5094 18.9013 14.7048 18.9013 14.9125V19.1234C18.9013 19.3312 19.0001 19.5265 19.1675 19.6496ZM18.7804 20.1758C18.4457 19.9296 18.2481 19.5389 18.2481 19.1234V14.9125C18.2481 14.4971 18.4457 14.1064 18.7804 13.8602L24.3821 9.73982C25.0142 9.27486 25.9106 9.46812 26.2951 10.1522L27.7402 12.724C28.1242 13.4073 27.8243 14.2725 27.0998 14.5716L23.1205 16.2142C22.7959 16.3482 22.5842 16.6647 22.5842 17.0158C22.5842 17.3691 22.7986 17.6871 23.1261 17.8196L27.0917 19.4238C27.8197 19.7184 28.1252 20.5841 27.7432 21.2703L26.2928 23.8758C25.9101 24.5632 25.011 24.7589 24.3772 24.2927L18.7804 20.1758Z" fill="#2DEBFC"/>
<path d="M17.1441 14.1478C17.5047 13.9387 17.7438 13.5701 17.7878 13.1556L18.5255 6.20842C18.6083 5.42808 17.9894 4.75129 17.2048 4.76425L14.2768 4.8126C13.4933 4.82554 12.8974 5.52047 13.0041 6.29674L13.591 10.5665C13.6392 10.9168 13.4702 11.2613 13.1638 11.4377C12.8583 11.6135 12.477 11.5873 12.1984 11.3715L8.81845 8.75265C8.19711 8.27122 7.29439 8.44352 6.89404 9.11995L5.40812 11.6306C5.01021 12.3029 5.28742 13.1718 6.00116 13.4895L12.3384 16.3101C12.7213 16.4805 13.1626 16.4569 13.5251 16.2467L17.1441 14.1478Z" fill="#2C85FC"/>
<path d="M48.0726 15.9063V24.4087H51.2361V13.5733H46.629V15.9063H48.0726Z" fill="white"/>
<path d="M47.9735 12.0508C48.2635 12.354 48.7051 12.5055 49.2982 12.5055C49.8917 12.5055 50.3264 12.354 50.603 12.0508C50.8933 11.7344 51.038 11.3389 51.038 10.8645C51.038 10.3767 50.8933 9.98122 50.603 9.67814C50.3264 9.36179 49.8917 9.20355 49.2982 9.20355C48.7051 9.20355 48.2635 9.36179 47.9735 9.67814C47.6969 9.98122 47.5584 10.3767 47.5584 10.8645C47.5584 11.3389 47.6969 11.7344 47.9735 12.0508Z" fill="white"/>
<path d="M72.6699 24.358C72.96 24.6612 73.4015 24.8127 73.9946 24.8127C74.5881 24.8127 75.0228 24.6612 75.2994 24.358C75.5897 24.0416 75.7344 23.6461 75.7344 23.1717C75.7344 22.6839 75.5897 22.2884 75.2994 21.9853C75.0228 21.669 74.5881 21.5108 73.9946 21.5108C73.4015 21.5108 72.96 21.669 72.6699 21.9853C72.3933 22.2884 72.2548 22.6839 72.2548 23.1717C72.2548 23.6461 72.3933 24.0416 72.6699 24.358Z" fill="white"/>
<path d="M37.0596 24.1712C37.9558 24.5798 39.0564 24.7842 40.3612 24.7842C41.5872 24.7842 42.6415 24.5932 43.525 24.2107C44.4081 23.8286 45.0868 23.2946 45.5613 22.6094C46.0493 21.9105 46.2929 21.0998 46.2929 20.1771C46.2929 19.2809 46.0627 18.5229 45.6012 17.9033C45.1528 17.2706 44.527 16.7763 43.7226 16.4205C42.9185 16.0513 41.9893 15.8206 40.9347 15.7285L39.8275 15.6296C39.1684 15.5767 38.6939 15.3989 38.4039 15.0956C38.1138 14.7925 37.9688 14.4366 37.9688 14.0281C37.9688 13.7115 38.0482 13.4217 38.2059 13.158C38.3643 12.8812 38.6015 12.6637 38.9179 12.5055C39.2475 12.3474 39.6495 12.2683 40.1241 12.2683C40.6248 12.2683 41.0402 12.3604 41.3697 12.5451C41.4422 12.5841 41.5111 12.6258 41.5758 12.6701L41.5915 12.6811C41.6157 12.6978 41.6395 12.7151 41.6627 12.7326C41.8629 12.8856 42.0223 13.067 42.1408 13.2766C42.312 13.5667 42.3982 13.8895 42.3982 14.2455H45.5613C45.5613 13.2964 45.3438 12.4725 44.9091 11.7739C44.4741 11.0622 43.848 10.5151 43.0308 10.1327C42.2264 9.73729 41.2577 9.53957 40.1241 9.53957C39.043 9.53957 38.1073 9.72423 37.3163 10.0933C36.5256 10.4492 35.906 10.9633 35.4579 11.6354C35.0226 12.3077 34.805 13.1053 34.805 14.0281C34.805 15.3066 35.2339 16.3347 36.0905 17.1125C36.9472 17.8903 38.0942 18.3384 39.531 18.457L40.6185 18.5559C41.5014 18.635 42.1408 18.813 42.5364 19.0897C42.9315 19.3533 43.1295 19.7158 43.1295 20.1771C43.1295 20.3892 43.0948 20.588 43.0253 20.7738C42.9737 20.9117 42.9031 21.0423 42.8133 21.1658C42.602 21.4428 42.2924 21.66 41.8838 21.8184C41.4752 21.9764 40.9677 22.0555 40.3612 22.0555C39.689 22.0555 39.142 21.9634 38.7203 21.7788C38.2984 21.5809 37.9822 21.3239 37.7709 21.0077C37.5733 20.6912 37.4747 20.3486 37.4747 19.9794H34.3308C34.3308 20.9153 34.5614 21.7458 35.0226 22.4709C35.484 23.1826 36.163 23.7496 37.0596 24.1712Z" fill="white"/>
<path d="M79.8828 24.1712C80.7789 24.5798 81.8796 24.7842 83.1844 24.7842C84.4104 24.7842 85.4647 24.5932 86.3482 24.2107C87.2313 23.8286 87.91 23.2946 88.3845 22.6094C88.8725 21.9105 89.1161 21.0998 89.1161 20.1771C89.1161 19.2809 88.8859 18.5229 88.4244 17.9033C87.9759 17.2706 87.3502 16.7763 86.5458 16.4205C85.7417 16.0513 84.8125 15.8206 83.7579 15.7285L82.6507 15.6296C81.9916 15.5767 81.5171 15.3989 81.227 15.0956C80.937 14.7925 80.792 14.4366 80.792 14.0281C80.792 13.7115 80.8714 13.4217 81.0291 13.158C81.1875 12.8812 81.4246 12.6637 81.7411 12.5055C82.0707 12.3474 82.4727 12.2683 82.9473 12.2683C83.4479 12.2683 83.8634 12.3604 84.1929 12.5451C84.2654 12.5841 84.3343 12.6258 84.399 12.6701L84.4147 12.6811C84.4388 12.6978 84.4627 12.7151 84.4859 12.7326C84.6861 12.8856 84.8455 13.067 84.964 13.2766C85.1352 13.5667 85.2214 13.8895 85.2214 14.2455H88.3845C88.3845 13.2964 88.167 12.4725 87.7323 11.7739C87.2973 11.0622 86.6712 10.5151 85.854 10.1327C85.0496 9.73729 84.0809 9.53957 82.9473 9.53957C81.8662 9.53957 80.9305 9.72423 80.1395 10.0933C79.3488 10.4492 78.7292 10.9633 78.2811 11.6354C77.8457 12.3077 77.6282 13.1053 77.6282 14.0281C77.6282 15.3066 78.057 16.3347 78.9137 17.1125C79.7704 17.8903 80.9174 18.3384 82.3541 18.457L83.4417 18.5559C84.3245 18.635 84.964 18.813 85.3595 19.0897C85.7547 19.3533 85.9526 19.7158 85.9526 20.1771C85.9526 20.3892 85.918 20.588 85.8485 20.7738C85.7969 20.9117 85.7263 21.0423 85.6365 21.1658C85.4252 21.4428 85.1156 21.66 84.707 21.8184C84.2984 21.9764 83.7909 22.0555 83.1844 22.0555C82.5122 22.0555 81.9652 21.9634 81.5435 21.7788C81.1216 21.5809 80.8054 21.3239 80.5941 21.0077C80.3965 20.6912 80.2979 20.3486 80.2979 19.9794H77.154C77.154 20.9153 77.3846 21.7458 77.8457 22.4709C78.3072 23.1826 78.9862 23.7496 79.8828 24.1712Z" fill="white"/>
<path d="M58.2947 24.5468C57.2006 24.5468 56.3175 24.4152 55.6453 24.1513C54.9728 23.8746 54.4787 23.42 54.1622 22.7874C53.8591 22.1414 53.7076 21.2713 53.7076 20.1771V15.8865H52.0664V13.5732H53.7076V10.6469H56.6535V13.5732H59.8173V15.8865H56.6535V20.2959C56.6535 20.81 56.7855 21.2053 57.049 21.482C57.3257 21.7458 57.7147 21.8775 58.2157 21.8775H59.8173V24.5468H58.2947Z" fill="white"/>
<path d="M107.551 24.5468C106.457 24.5468 105.573 24.4152 104.901 24.1513C104.229 23.8746 103.735 23.42 103.418 22.7874C103.115 22.1414 102.964 21.2713 102.964 20.1771V15.8865H101.322V13.5732H102.964V10.6469H105.91V13.5732H109.073V15.8865H105.91V20.2959C105.91 20.81 106.042 21.2053 106.305 21.482C106.582 21.7458 106.971 21.8775 107.472 21.8775H109.073V24.5468H107.551Z" fill="white"/>
<path fill-rule="evenodd" clip-rule="evenodd" d="M63.6261 24.3097C64.3378 24.6262 65.1553 24.7843 66.0779 24.7843C66.9872 24.7843 67.7916 24.6262 68.4902 24.3097C69.1888 23.9933 69.7689 23.5517 70.23 22.985C70.6915 22.4181 71.0015 21.7724 71.1592 21.0473H68.2528C68.1212 21.3769 67.8707 21.6535 67.5016 21.8775C67.1325 22.1019 66.6577 22.2139 66.0779 22.2139C65.7187 22.2139 65.3976 22.1715 65.1148 22.0862C64.8996 22.0216 64.7065 21.9324 64.5357 21.8184C64.1402 21.5549 63.8502 21.1855 63.6657 20.7112C63.6144 20.576 63.5706 20.4346 63.5337 20.2874C63.4962 20.1382 63.4658 19.983 63.4429 19.8214H71.3571V18.7537C71.3571 17.765 71.1461 16.8555 70.7245 16.0251C70.3025 15.1813 69.6895 14.5025 68.8857 13.9885C68.0947 13.4612 67.1191 13.1976 65.9591 13.1976C65.0759 13.1976 64.2849 13.3558 63.5863 13.6722C62.9014 13.9752 62.3279 14.3905 61.8664 14.9177C61.4052 15.445 61.0492 16.0449 60.7984 16.7172C60.5613 17.3761 60.4427 18.0681 60.4427 18.7931V19.1886C60.4427 19.8873 60.5613 20.5727 60.7984 21.2449C61.0492 21.904 61.4052 22.5036 61.8664 23.0442C62.341 23.5716 62.9272 23.9933 63.6261 24.3097ZM63.4975 17.8663C63.5063 17.8244 63.5154 17.7832 63.5255 17.7426C63.553 17.6308 63.5847 17.5237 63.6206 17.4213C63.6408 17.363 63.6624 17.3062 63.6856 17.251C63.8832 16.7632 64.1732 16.3942 64.5553 16.1437C64.6984 16.0501 64.8532 15.974 65.0194 15.9154C65.299 15.8172 65.6125 15.768 65.9591 15.768C66.4999 15.768 66.9477 15.8933 67.3037 16.1437C67.6727 16.3809 67.9497 16.7302 68.1342 17.1916C68.1492 17.2288 68.1633 17.2667 68.177 17.3051C68.1989 17.3662 68.2191 17.429 68.2381 17.4933C68.2658 17.5889 68.2903 17.688 68.3119 17.7903C68.3276 17.8658 68.341 17.943 68.353 18.0221H63.4671C63.4762 17.9693 63.4864 17.9174 63.4975 17.8663Z" fill="white"/>
<path fill-rule="evenodd" clip-rule="evenodd" d="M93.0747 24.3097C93.7864 24.6262 94.6039 24.7843 95.5265 24.7843C96.4358 24.7843 97.2402 24.6262 97.9388 24.3097C98.6374 23.9933 99.2175 23.5517 99.6786 22.985C100.14 22.4181 100.45 21.7724 100.608 21.0473H97.7014C97.5698 21.3769 97.3193 21.6535 96.9502 21.8775C96.5811 22.1019 96.1063 22.2139 95.5265 22.2139C95.1673 22.2139 94.8462 22.1715 94.5634 22.0862C94.3482 22.0216 94.1551 21.9324 93.9843 21.8184C93.5888 21.5549 93.2988 21.1855 93.1143 20.7112C93.063 20.576 93.0192 20.4346 92.9823 20.2874C92.9448 20.1382 92.9144 19.983 92.8915 19.8214H100.806V18.7537C100.806 17.765 100.595 16.8555 100.173 16.0251C99.7511 15.1813 99.1381 14.5025 98.3343 13.9885C97.5433 13.4612 96.5678 13.1976 95.4077 13.1976C94.5245 13.1976 93.7335 13.3558 93.0349 13.6722C92.35 13.9752 91.7765 14.3905 91.315 14.9177C90.8539 15.445 90.4979 16.0449 90.247 16.7172C90.0099 17.3761 89.8914 18.0681 89.8914 18.7931V19.1886C89.8914 19.8873 90.0099 20.5727 90.247 21.2449C90.4979 21.904 90.8539 22.5036 91.315 23.0442C91.7896 23.5716 92.3758 23.9933 93.0747 24.3097ZM92.9461 17.8663C92.9549 17.8244 92.964 17.7832 92.9742 17.7426C93.0016 17.6308 93.0333 17.5237 93.0692 17.4213C93.0894 17.363 93.111 17.3062 93.1342 17.251C93.3318 16.7632 93.6218 16.3942 94.0039 16.1437C94.147 16.0501 94.3018 15.974 94.468 15.9154C94.7476 15.8172 95.0611 15.768 95.4077 15.768C95.9485 15.768 96.3963 15.8933 96.7523 16.1437C97.1213 16.3809 97.3983 16.7302 97.5828 17.1916C97.5979 17.2288 97.6119 17.2667 97.6256 17.3051C97.6475 17.3662 97.6677 17.429 97.6867 17.4933C97.7145 17.5889 97.7389 17.688 97.7605 17.7903C97.7762 17.8658 97.7896 17.943 97.8017 18.0221H92.9157C92.9248 17.9693 92.935 17.9174 92.9461 17.8663Z" fill="white"/>
</svg>
